<?xml version="1.0" encoding="UTF-8" standalone="no"?>
<svg
   width="680.32812"
   zoomAndPan="magnify"
   viewBox="0 0 510.24609 190.68751"
   height="254.25002"
   preserveAspectRatio="xMidYMid"
   version="1.0"
   id="svg74"
   sodipodi:docname="3_FerrousSystems_logo.svg"
   xmlns:inkscape="http://www.inkscape.org/namespaces/inkscape"
   xmlns:sodipodi="http://sodipodi.sourceforge.net/DTD/sodipodi-0.dtd"
   xmlns="http://www.w3.org/2000/svg"
   xmlns:svg="http://www.w3.org/2000/svg">
  <sodipodi:namedview
     id="namedview76"
     pagecolor="#ffffff"
     bordercolor="#000000"
     borderopacity="0.25"
     inkscape:showpageshadow="2"
     inkscape:pageopacity="0.0"
     inkscape:pagecheckerboard="0"
     inkscape:deskcolor="#d1d1d1"
     showgrid="false" />
  <defs
     id="defs20">
    <clipPath
       id="c2351fa625">
      <path
         d="m 135,0.949219 h 49 V 80 h -49 z m 0,0"
         clip-rule="nonzero"
         id="path2" />
    </clipPath>
    <clipPath
       id="64af03c160">
      <path
         d="m 183,118 h 52 v 73.73047 h -52 z m 0,0"
         clip-rule="nonzero"
         id="path5" />
    </clipPath>
    <clipPath
       id="b45ab252bb">
      <path
         d="M 1.132812,85 H 30 v 30 H 1.132812 Z m 0,0"
         clip-rule="nonzero"
         id="path8" />
    </clipPath>
    <clipPath
       id="5429e00b0c">
      <path
         d="M 1.132812,29 H 59 V 59 H 1.132812 Z m 0,0"
         clip-rule="nonzero"
         id="path11" />
    </clipPath>
    <clipPath
       id="7ddf0e7fb5">
      <path
         d="m 469,117 h 42.38281 v 55 H 469 Z m 0,0"
         clip-rule="nonzero"
         id="path14" />
    </clipPath>
    <clipPath
       id="1ef542b481">
      <rect
         x="0"
         width="512"
         y="0"
         height="192"
         id="rect17" />
    </clipPath>
  </defs>
  <g
     transform="translate(-1.1328125,-0.99218096)"
     id="g72">
    <g
       clip-path="url(#1ef542b481)"
       id="g70">
      <g
         clip-path="url(#c2351fa625)"
         id="g24">
        <path
           fill="#1c5397"
           d="m 147.75,76.105469 c 0,1.769531 1.42969,3.203125 3.19531,3.203125 h 7.57031 c 1.76563,0 3.19922,-1.433594 3.19922,-3.203125 V 40.046875 h 12.04688 c 1.76562,0 3.19922,-1.4375 3.19922,-3.203125 v -5.867188 c 0,-1.765624 -1.4336,-3.203124 -3.19922,-3.203124 H 161.71484 V 21.90625 c 0,-2.558594 0.67578,-4.515625 2.02344,-5.867188 1.42188,-1.421874 3.41406,-2.132812 5.97266,-2.132812 1.42187,0 2.59375,0.210938 3.51953,0.640625 1.57422,0.726563 3.55078,0.808594 4.77344,-0.429687 l 4.4375,-4.5 C 183.66406,8.382812 183.6875,6.375 182.32812,5.296875 181.02344,4.269531 179.62891,3.402344 178.13281,2.699219 175.71875,1.5625 172.83984,0.992188 169.5,0.992188 c -4.40625,0 -8.24609,0.925781 -11.51563,2.777343 -3.26953,1.847657 -5.79296,4.371094 -7.57031,7.574219 -1.77734,3.128906 -2.66406,6.757812 -2.66406,10.882812 v 5.546876 h -8.74219 c -1.76562,0 -3.19922,1.433593 -3.19922,3.199218 v 5.867188 c 0,1.769531 1.4336,3.203125 3.19922,3.203125 H 147.75 Z m 0,0"
           fill-opacity="1"
           fill-rule="nonzero"
           id="path22" />
      </g>
      <path
         fill="#1c5397"
         d="m 192.36719,76.960938 c 4.19531,2.277343 8.99218,3.414062 14.39453,3.414062 4.19531,0 8.0664,-0.746094 11.62109,-2.242188 2.6836,-1.105468 5.05469,-2.601562 7.11719,-4.488281 1.23047,-1.128906 1.14062,-3.039062 -0.0391,-4.21875 l -3.70703,-3.710937 c -1.3086,-1.304688 -3.42969,-1.203125 -4.91407,-0.105469 -0.9375,0.691406 -1.95312,1.277344 -3.04297,1.75 -2.13281,0.855469 -4.51171,1.277344 -7.14062,1.277344 -2.91406,0 -5.47266,-0.601563 -7.67578,-1.8125 -2.20313,-1.28125 -3.91016,-3.058594 -5.11719,-5.335938 -0.45312,-0.9375 -0.81641,-1.9375 -1.08984,-3 l 35.13281,-0.08594 c 1.48047,-0.0039 2.80469,-1.019532 2.98828,-2.492188 0.0273,-0.246094 0.0547,-0.484375 0.0742,-0.714844 0.14062,-0.996093 0.21094,-1.960937 0.21094,-2.882812 0,-4.910156 -1.10157,-9.285156 -3.3086,-13.125 -2.13281,-3.914062 -5.11328,-6.96875 -8.95312,-9.175781 -3.76563,-2.273438 -8.14063,-3.414063 -13.11328,-3.414063 -4.97266,0 -9.62891,1.210938 -13.75391,3.628906 -4.12109,2.347657 -7.39062,5.546876 -9.80859,9.601563 -2.34375,3.984375 -3.51953,8.539063 -3.51953,13.660156 0,5.117188 1.21093,9.8125 3.625,13.867188 2.48828,4.054687 5.83203,7.253906 10.02343,9.605469 z m 0.41406,-28.929688 c 0.25,-0.941406 0.57422,-1.828125 0.97266,-2.648438 1.13671,-2.273437 2.73437,-4.019531 4.79687,-5.226562 2.0625,-1.28125 4.47656,-1.921875 7.25,-1.921875 2.76953,0 4.83203,0.566406 6.60938,1.707031 1.84765,1.066406 3.23437,2.628906 4.15625,4.695313 0.48046,0.992187 0.85937,2.101562 1.14062,3.324219 l -24.92969,0.07031 z m 0,0"
         fill-opacity="1"
         fill-rule="evenodd"
         id="path26" />
      <path
         fill="#1c5397"
         d="m 241.94531,79.308594 c -1.76562,0 -3.19922,-1.433594 -3.19922,-3.203125 V 30.976562 c 0,-1.765624 1.4336,-3.203124 3.19922,-3.203124 h 7.57031 c 1.76563,0 3.19922,1.4375 3.19922,3.203124 v 1.410157 c 0.0352,-0.04297 0.0703,-0.08594 0.10547,-0.128907 3.0586,-3.695312 7.46485,-5.546874 13.22266,-5.546874 2.48828,0 4.72656,0.425781 6.71484,1.28125 1.20313,0.46875 2.33985,1.140624 3.41406,2 1.25391,1.007812 1.23438,2.851562 0.17969,4.0625 L 271.75,39.332031 c -1.22266,1.40625 -3.42969,1.371094 -5.17188,0.714844 -1.0664,-0.425781 -2.30859,-0.640625 -3.73046,-0.640625 -2.98829,0 -5.44141,0.960938 -7.35938,2.882812 -1.84766,1.851563 -2.76953,4.695313 -2.76953,8.535157 v 25.289062 c 0,1.765625 -1.43359,3.199219 -3.19922,3.199219 h -7.57031 z m 0,0"
         fill-opacity="1"
         fill-rule="nonzero"
         id="path28" />
      <path
         fill="#1c5397"
         d="m 281.93359,76.105469 c 0,1.769531 1.42969,3.203125 3.19922,3.203125 h 7.56641 c 1.76562,0 3.19922,-1.433594 3.19922,-3.203125 V 50.820312 c 0,-3.839843 0.92187,-6.6875 2.77343,-8.535156 1.91797,-1.921875 4.36719,-2.882812 7.35547,-2.882812 1.42188,0 2.66407,0.210937 3.73047,0.640625 1.7461,0.652343 3.95313,0.691406 5.17578,-0.714844 l 4.59766,-5.277344 c 1.05469,-1.214843 1.07422,-3.058593 -0.17578,-4.0625 -1.07422,-0.863281 -2.21094,-1.53125 -3.41406,-2.003906 -1.98829,-0.855469 -4.23047,-1.277344 -6.71875,-1.277344 -5.75391,0 -10.16407,1.847657 -13.21875,5.546875 -0.0352,0.03906 -0.0703,0.08594 -0.10938,0.125 v -1.40625 c 0,-1.769531 -1.42969,-3.203125 -3.19922,-3.203125 h -7.5664 c -1.76563,0 -3.19922,1.433594 -3.19922,3.203125 v 45.128906 z m 0,0"
         fill-opacity="1"
         fill-rule="nonzero"
         id="path30" />
      <path
         fill="#1c5397"
         d="m 347.96484,80.375 c -5.1914,0 -9.88281,-1.175781 -14.07422,-3.519531 -4.125,-2.417969 -7.42968,-5.65625 -9.91796,-9.710938 -2.41797,-4.125 -3.625,-8.710937 -3.625,-13.761719 0,-5.050781 1.20703,-9.570312 3.625,-13.550781 2.41796,-4.050781 5.72265,-7.253906 9.91796,-9.601562 4.19141,-2.417969 8.84766,-3.628907 13.96485,-3.628907 5.11719,0 9.95312,1.210938 14.07422,3.628907 4.19531,2.34375 7.5,5.546875 9.91797,9.601562 2.41406,3.984375 3.625,8.5 3.625,13.550781 0,5.046876 -1.21094,9.636719 -3.625,13.761719 -2.41797,4.054688 -5.72266,7.292969 -9.91797,9.710938 -4.1211,2.34375 -8.77735,3.519531 -13.96485,3.519531 z m -0.10937,-13.015625 c 2.63281,0 4.9414,-0.570313 6.92969,-1.707031 2.0625,-1.210938 3.625,-2.847656 4.6914,-4.910156 1.13672,-2.132813 1.70313,-4.550782 1.70313,-7.253907 0,-2.699219 -0.56641,-5.085937 -1.70313,-7.148437 -1.14062,-2.0625 -2.70312,-3.664063 -4.6914,-4.800782 -1.98829,-1.210937 -4.30079,-1.8125 -6.92969,-1.8125 -2.62891,0 -4.83203,0.601563 -6.82031,1.8125 -1.99219,1.140626 -3.55469,2.738282 -4.69141,4.800782 -1.13672,2.0625 -1.70703,4.445312 -1.70703,7.148437 0,2.707031 0.57031,5.121094 1.70703,7.253907 1.13672,2.0625 2.69922,3.703124 4.69141,4.910156 1.98828,1.136718 4.26171,1.707031 6.82031,1.707031 z m 0,0"
         fill-opacity="1"
         fill-rule="evenodd"
         id="path32" />
      <path
         fill="#1c5397"
         d="m 393.20703,77.496094 c 3.55469,1.917968 7.60156,2.878906 12.15234,2.878906 4.55079,0 8.5625,-0.921875 12.04688,-2.773438 3.55469,-1.917968 6.28906,-4.589843 8.21094,-8 1.98828,-3.414062 2.98437,-7.398437 2.98437,-11.953124 V 30.976562 c 0,-1.765624 -1.43359,-3.203124 -3.19922,-3.203124 h -7.57031 c -1.76562,0 -3.19922,1.4375 -3.19922,3.203124 v 26.355469 c 0,3.199219 -0.8164,5.6875 -2.45312,7.46875 -1.63282,1.777344 -3.90625,2.664063 -6.82032,2.664063 -1.92187,0 -3.58984,-0.390625 -5.01171,-1.171875 -1.42188,-0.785157 -2.48829,-1.921875 -3.19922,-3.414063 -0.71094,-1.566406 -1.06641,-3.414062 -1.06641,-5.546875 V 30.976562 c 0,-1.765624 -1.43359,-3.203124 -3.19922,-3.203124 h -7.67578 c -1.76562,0 -3.19922,1.4375 -3.19922,3.203124 v 26.671876 c 0,4.480468 0.9961,8.429687 2.98828,11.84375 1.98828,3.414062 4.72266,6.082031 8.20703,8.003906 z m 0,0"
         fill-opacity="1"
         fill-rule="nonzero"
         id="path34" />
      <path
         fill="#1c5397"
         d="m 456.35547,80.484375 c -2.91406,0 -5.79297,-0.394531 -8.63281,-1.175781 -2.77344,-0.78125 -5.33204,-1.851563 -7.67579,-3.203125 -1.46875,-0.890625 -2.8125,-1.890625 -4.03125,-3.007813 -1.23046,-1.121094 -1.14843,-3.023437 0.0195,-4.207031 l 3.85546,-3.910156 c 1.29688,-1.3125 3.41797,-1.226563 4.87891,-0.101563 1.14453,0.878906 2.375,1.597656 3.69922,2.15625 2.34375,0.996094 4.94141,1.496094 7.78516,1.496094 2.27343,0 3.98046,-0.320312 5.11718,-0.960938 1.20703,-0.640624 1.8125,-1.597656 1.8125,-2.878906 0,-1.425781 -0.64062,-2.527344 -1.92187,-3.308594 -1.21094,-0.78125 -2.8086,-1.421874 -4.79688,-1.921874 -1.98828,-0.566407 -4.08593,-1.171876 -6.28906,-1.8125 -2.13281,-0.710938 -4.19531,-1.601563 -6.18359,-2.667969 -1.98828,-1.136719 -3.625,-2.664063 -4.90625,-4.585938 -1.20703,-1.992187 -1.8125,-4.554687 -1.8125,-7.683593 0,-3.128907 0.78125,-6.117188 2.34375,-8.535157 1.63672,-2.417969 3.94531,-4.304687 6.92968,-5.65625 2.98438,-1.351562 6.50782,-2.027343 10.5586,-2.027343 4.26562,0 8.10156,0.75 11.51172,2.242187 2.60937,1.121094 4.8789,2.65625 6.80859,4.609375 1.12109,1.140625 0.98438,2.957031 -0.14844,4.089844 l -3.9414,3.945312 c -1.33985,1.339844 -3.52344,1.1875 -5.01953,0.01953 -0.88672,-0.691407 -1.82422,-1.25 -2.81641,-1.671876 -1.91797,-0.855468 -4.01563,-1.28125 -6.29297,-1.28125 -2.05859,0 -3.65625,0.320313 -4.79687,0.960938 -1.06641,0.640625 -1.59766,1.53125 -1.59766,2.664062 0,1.28125 0.60547,2.277344 1.8125,2.988282 1.28125,0.710937 2.91797,1.351562 4.90625,1.921875 1.98828,0.5 4.05078,1.101562 6.18359,1.8125 2.19922,0.640625 4.26563,1.566406 6.1836,2.773437 1.98828,1.210938 3.58984,2.8125 4.79687,4.800782 1.27735,1.992187 1.91797,4.554687 1.91797,7.683593 0,5.050781 -1.81641,9.066407 -5.4375,12.054688 -3.625,2.917969 -8.5625,4.375 -14.82031,4.375 z m 0,0"
         fill-opacity="1"
         fill-rule="nonzero"
         id="path36" />
      <path
         fill="#1c5397"
         d="m 149.5625,170.12891 c 2.84375,0.78125 5.72266,1.17187 8.63281,1.17187 6.25391,0 11.19531,-1.45703 14.82031,-4.37109 3.62891,-2.98828 5.44141,-7.00782 5.44141,-12.0586 0,-3.1289 -0.64062,-5.6914 -1.91797,-7.67968 -1.21094,-1.99219 -2.80859,-3.59375 -4.79687,-4.80079 -1.91797,-1.21093 -3.98047,-2.13671 -6.1836,-2.77343 -2.13281,-0.71485 -4.19531,-1.31641 -6.18359,-1.81641 -1.98828,-0.56641 -3.625,-1.21094 -4.90234,-1.92187 -1.20704,-0.71094 -1.81641,-1.70704 -1.81641,-2.98438 0,-1.14062 0.53516,-2.02734 1.60156,-2.66797 1.13672,-0.64062 2.73438,-0.96094 4.79688,-0.96094 2.27343,0 4.36718,0.42969 6.28906,1.28125 0.99219,0.42579 1.92969,0.98438 2.82031,1.67188 1.49219,1.16797 3.67578,1.32422 5.01563,-0.0195 l 3.9414,-3.94531 c 1.13282,-1.13282 1.27344,-2.94922 0.14844,-4.08594 -1.92969,-1.95703 -4.19922,-3.49219 -6.80469,-4.61328 -3.41406,-1.49219 -7.25,-2.23828 -11.51562,-2.23828 -4.26563,0 -7.57031,0.67187 -10.55469,2.02343 -2.98828,1.35157 -5.29687,3.23829 -6.92969,5.65625 -1.5625,2.41797 -2.34765,5.26563 -2.34765,8.53516 0,3.27344 0.60547,5.69141 1.8125,7.68359 1.28125,1.92188 2.91797,3.44922 4.90625,4.58594 1.98828,1.07031 4.05078,1.96094 6.18359,2.66797 2.20313,0.64062 4.30078,1.24219 6.28906,1.81641 1.98828,0.49609 3.58985,1.13671 4.79688,1.91796 1.28125,0.78516 1.91797,1.88672 1.91797,3.3086 0,1.28125 -0.60157,2.24219 -1.8125,2.8789 -1.13672,0.64063 -2.84375,0.96094 -5.11719,0.96094 -2.84375,0 -5.4375,-0.5 -7.78125,-1.49609 -1.32422,-0.5586 -2.55469,-1.28125 -3.69922,-2.15625 -1.46484,-1.125 -3.58594,-1.21094 -4.87891,0.10547 l -3.85546,3.90625 c -1.16797,1.18359 -1.25,3.08593 -0.0234,4.21093 1.21875,1.11329 2.5625,2.11719 4.03125,3.00782 2.34375,1.35156 4.90625,2.41797 7.67578,3.19922 z m 0,0"
         fill-opacity="1"
         fill-rule="nonzero"
         id="path38" />
      <g
         clip-path="url(#64af03c160)"
         id="g42">
        <path
           fill="#1c5397"
           d="M 183.3125,123.02344 201,165.69531 190.88672,187.11328 c -1.00391,2.12109 0.54297,4.56641 2.89062,4.56641 h 7.6875 c 1.26563,0 2.41407,-0.7461 2.92578,-1.90625 l 29.47657,-66.6836 c 0.93359,-2.11328 -0.61328,-4.49218 -2.92578,-4.49218 h -8.11329 c -1.33203,0 -2.53125,0.82812 -2.99609,2.08203 l -11.4375,30.6289 -11.01172,-30.59375 c -0.45703,-1.26953 -1.66015,-2.11718 -3.00781,-2.11718 h -8.10547 c -2.28125,0 -3.82812,2.32031 -2.95312,4.42968 z m 0,0"
           fill-opacity="1"
           fill-rule="nonzero"
           id="path40" />
      </g>
      <path
         fill="#1c5397"
         d="m 249.04687,170.12891 c 2.84375,0.78125 5.72266,1.17187 8.63672,1.17187 6.25391,0 11.19532,-1.45703 14.82032,-4.37109 3.625,-2.98828 5.4375,-7.00782 5.4375,-12.0586 0,-3.1289 -0.63672,-5.6914 -1.91797,-7.67968 -1.20703,-1.99219 -2.8086,-3.59375 -4.79688,-4.80079 -1.92187,-1.21093 -3.98437,-2.13671 -6.18359,-2.77343 -2.13281,-0.71485 -4.19531,-1.31641 -6.1836,-1.81641 -1.98828,-0.56641 -3.625,-1.21094 -4.90625,-1.92187 -1.20703,-0.71094 -1.8125,-1.70704 -1.8125,-2.98438 0,-1.14062 0.53125,-2.02734 1.59766,-2.66797 1.14063,-0.64062 2.73828,-0.96094 4.79688,-0.96094 2.27343,0 4.375,0.42969 6.29296,1.28125 0.99219,0.42579 1.92969,0.98438 2.81641,1.67188 1.49609,1.16797 3.67969,1.32422 5.01953,-0.0195 l 3.94141,-3.94531 c 1.13281,-1.13282 1.26953,-2.94922 0.14844,-4.08594 -1.92969,-1.95703 -4.19922,-3.49219 -6.8086,-4.61328 -3.41015,-1.49219 -7.25,-2.23828 -11.51172,-2.23828 -4.26562,0 -7.57031,0.67187 -10.55859,2.02343 -2.98438,1.35157 -5.29297,3.23829 -6.92969,5.65625 -1.5625,2.41797 -2.34375,5.26563 -2.34375,8.53516 0,3.27344 0.60547,5.69141 1.8125,7.68359 1.28125,1.92188 2.91797,3.44922 4.90625,4.58594 1.98828,1.07031 4.05078,1.96094 6.1836,2.66797 2.20312,0.64062 4.30078,1.24219 6.28906,1.81641 1.98828,0.49609 3.58984,1.13671 4.79687,1.91796 1.28125,0.78516 1.92188,1.88672 1.92188,3.3086 0,1.28125 -0.60547,2.24219 -1.81641,2.8789 -1.13672,0.64063 -2.83984,0.96094 -5.11719,0.96094 -2.84375,0 -5.4375,-0.5 -7.78515,-1.49609 -1.32031,-0.5586 -2.55469,-1.28125 -3.69531,-2.15625 -1.46485,-1.125 -3.58594,-1.21094 -4.88282,0.10547 l -3.85156,3.90625 c -1.16797,1.18359 -1.25,3.08593 -0.0234,4.21093 1.21875,1.11329 2.5625,2.11719 4.03125,3.00782 2.34375,1.35156 4.90625,2.41797 7.67578,3.19922 z m 0,0"
         fill-opacity="1"
         fill-rule="nonzero"
         id="path44" />
      <g
         clip-path="url(#b45ab252bb)"
         id="g48">
        <path
           fill="#7abce6"
           d="m 3.613281,85.960938 h 23.675781 c 0.328126,0 0.644532,0.0625 0.949219,0.191406 0.304688,0.125 0.570313,0.304687 0.804688,0.535156 0.230469,0.234375 0.410156,0.503906 0.535156,0.804688 0.128906,0.304687 0.191406,0.621093 0.191406,0.949218 v 23.695314 c 0,0.32812 -0.0625,0.64453 -0.191406,0.94922 -0.125,0.30469 -0.304687,0.57422 -0.535156,0.80469 -0.234375,0.23437 -0.5,0.41406 -0.804688,0.53906 -0.304687,0.125 -0.621093,0.1875 -0.949219,0.1875 H 3.613281 c -0.328125,0 -0.644531,-0.0625 -0.949219,-0.1875 -0.304687,-0.125 -0.574218,-0.30469 -0.804687,-0.53906 -0.234375,-0.23047 -0.414063,-0.5 -0.539063,-0.80469 -0.125,-0.30469 -0.1875,-0.6211 -0.1875,-0.94922 V 88.441406 c 0,-0.328125 0.0625,-0.644531 0.1875,-0.949218 0.125,-0.300782 0.304688,-0.570313 0.539063,-0.804688 0.230469,-0.230469 0.5,-0.410156 0.804687,-0.535156 0.304688,-0.128906 0.621094,-0.191406 0.949219,-0.191406 z m 0,0"
           fill-opacity="1"
           fill-rule="nonzero"
           id="path46" />
      </g>
      <path
         fill="#c073de"
         d="m 60.859375,114.37109 h 23.675781 c 1.371094,0 2.480469,1.10938 2.480469,2.48047 v 26.17578 H 58.378906 v -26.17578 c 0,-1.37109 1.109375,-2.48047 2.480469,-2.48047 z m 0,0"
         fill-opacity="1"
         fill-rule="nonzero"
         id="path50" />
      <path
         fill="#f25152"
         d="m 58.378906,143.02734 h 28.636719 v 26.17578 c 0,1.3711 -1.109375,2.48047 -2.480469,2.48047 H 60.859375 c -1.371094,0 -2.480469,-1.10937 -2.480469,-2.48047 z m 0,0"
         fill-opacity="1"
         fill-rule="nonzero"
         id="path52" />
      <path
         fill="#fada39"
         d="m 58.378906,29.398438 v 54.832031 c 0,1.371093 1.109375,2.480469 2.480469,2.480469 h 23.675781 c 1.371094,0 2.480469,-1.109376 2.480469,-2.480469 V 31.878906 c 0,-1.371094 -1.109375,-2.480468 -2.480469,-2.480468 z m 0,0"
         fill-opacity="1"
         fill-rule="nonzero"
         id="path54" />
      <g
         clip-path="url(#5429e00b0c)"
         id="g58">
        <path
           fill="#20ca8d"
           d="M 58.40625,29.398438 H 3.613281 c -1.371093,0 -2.480469,1.109374 -2.480469,2.480468 v 23.691406 c 0,1.371094 1.109376,2.484376 2.480469,2.484376 H 58.40625 Z m 0,0"
           fill-opacity="1"
           fill-rule="nonzero"
           id="path56" />
      </g>
      <path
         fill="#1c5397"
         d="m 297.0625,170.12891 c -1.76563,0 -3.19922,-1.4336 -3.19922,-3.20313 v -36.0625 h -8.84766 c -1.76562,0 -3.19921,-1.43359 -3.19921,-3.19922 v -5.86718 c 0,-1.76954 1.43359,-3.20313 3.19921,-3.20313 h 8.84766 v -18.24609 c 0,-1.765629 1.43359,-3.199222 3.19922,-3.199222 h 7.56641 c 1.76953,0 3.19921,1.433593 3.19921,3.199222 v 18.24609 h 8.85157 c 1.76562,0 3.19922,1.43359 3.19922,3.20313 v 5.86718 c 0,1.76563 -1.4336,3.19922 -3.19922,3.19922 h -8.85157 v 36.0625 c 0,1.76953 -1.42968,3.20313 -3.19921,3.20313 z m 0,0"
         fill-opacity="1"
         fill-rule="nonzero"
         id="path60" />
      <path
         fill="#1c5397"
         d="m 335.65234,167.78125 c 4.19532,2.27344 8.99219,3.41406 14.39453,3.41406 4.19141,0 8.06641,-0.75 11.6211,-2.24219 2.68359,-1.10546 5.05469,-2.60156 7.11719,-4.48828 1.23046,-1.1289 1.14062,-3.03906 -0.0391,-4.21875 l -3.70703,-3.71093 c -1.30859,-1.3086 -3.42969,-1.20313 -4.91797,-0.10547 -0.9375,0.6914 -1.95312,1.27734 -3.03906,1.74609 -2.13281,0.85547 -4.51562,1.28125 -7.14453,1.28125 -2.91797,0 -5.47266,-0.60547 -7.67969,-1.81641 -2.20312,-1.27734 -3.90625,-3.05468 -5.11328,-5.33203 -0.45703,-0.9375 -0.82031,-1.9414 -1.09375,-3 l 35.13281,-0.0859 c 1.48438,-0.004 2.80078,-1.01954 2.98438,-2.49219 0.0312,-0.25 0.0586,-0.48828 0.0742,-0.71875 0.14062,-0.9961 0.21484,-1.95703 0.21484,-2.88281 0,-4.90625 -1.10156,-9.28125 -3.30469,-13.1211 -2.13281,-3.91406 -5.12109,-6.97265 -8.95703,-9.17578 -3.76562,-2.27734 -8.13672,-3.41406 -13.11328,-3.41406 -4.97656,0 -9.62891,1.21094 -13.75391,3.62891 -4.12109,2.34375 -7.39453,5.54687 -9.80859,9.60156 -2.34766,3.98437 -3.51953,8.53515 -3.51953,13.65625 0,5.12109 1.21094,9.8164 3.625,13.87109 2.48828,4.05078 5.82812,7.25391 10.02344,9.60156 z m 0.41797,-28.92969 c 0.2461,-0.9414 0.57031,-1.82812 0.97266,-2.64844 1.13672,-2.27734 2.73437,-4.01953 4.79687,-5.23046 2.0586,-1.27735 4.47657,-1.92188 7.2461,-1.92188 2.77343,0 4.83593,0.57031 6.61328,1.70703 1.84765,1.06641 3.23437,2.63281 4.15625,4.69531 0.48047,0.99219 0.85937,2.10157 1.14062,3.32813 z m 0,0"
         fill-opacity="1"
         fill-rule="evenodd"
         id="path62" />
      <path
         fill="#1c5397"
         d="m 385.23047,170.12891 c -1.76172,0 -3.19531,-1.4336 -3.19531,-3.20313 v -45.1289 c 0,-1.76954 1.4375,-3.20313 3.19531,-3.20313 h 7.57031 c 1.76563,0 3.20313,1.43359 3.20313,3.20313 v 1.26953 c 1.25,-1.22266 2.66796,-2.25 4.26171,-3.08594 2.98047,-1.63281 6.35938,-2.45313 10.125,-2.45313 3.5586,0 6.78907,0.82032 9.70313,2.45313 2.44531,1.3125 4.46484,3.09766 6.05469,5.35937 1.72265,-2.20312 3.82812,-3.95312 6.3164,-5.25 3.125,-1.70703 6.60938,-2.5625 10.44532,-2.5625 3.83984,0 7.28515,0.82032 10.34375,2.45313 3.05468,1.56641 5.47265,3.83984 7.24609,6.82812 1.78516,2.98438 2.67187,6.54297 2.67187,10.66797 v 29.44531 c 0,1.76954 -1.4375,3.20313 -3.20312,3.20313 h -7.57031 c -1.76563,0 -3.19532,-1.43359 -3.19532,-3.20313 v -27.20312 c 0,-2.98828 -0.96093,-5.30078 -2.875,-6.9375 -1.84765,-1.70703 -4.16406,-2.55859 -6.93359,-2.55859 -1.77734,0 -3.44922,0.39062 -5.00781,1.17187 -1.49219,0.71094 -2.67188,1.78125 -3.51953,3.20313 -0.85547,1.42187 -1.27735,3.1289 -1.27735,5.12109 v 27.20312 c 0,1.76954 -1.4375,3.20313 -3.20312,3.20313 h -7.57031 c -1.76172,0 -3.19532,-1.43359 -3.19532,-3.20313 v -27.20312 c 0,-2.98828 -0.96093,-5.30078 -2.875,-6.9375 -1.84765,-1.70703 -4.16406,-2.55859 -6.93359,-2.55859 -1.85156,0 -3.51563,0.39062 -5.00781,1.17187 -1.49219,0.71094 -2.66797,1.78125 -3.51953,3.20313 -0.85547,1.42187 -1.27735,3.1289 -1.27735,5.12109 v 27.20312 c 0,1.76954 -1.4375,3.20313 -3.20312,3.20313 h -7.57032 z m 0,0"
         fill-opacity="1"
         fill-rule="nonzero"
         id="path64" />
      <g
         clip-path="url(#7ddf0e7fb5)"
         id="g68">
        <path
           fill="#1c5397"
           d="m 482.48437,170.12891 c 2.84375,0.78125 5.72266,1.17187 8.63282,1.17187 6.2539,0 11.19531,-1.45703 14.82031,-4.37109 3.62891,-2.98828 5.44141,-7.00782 5.44141,-12.0586 0,-3.1289 -0.64454,-5.6914 -1.92579,-7.67968 -1.20312,-1.99219 -2.80078,-3.59375 -4.79687,-4.80079 -1.91406,-1.21093 -3.98047,-2.13671 -6.18359,-2.77343 -2.12891,-0.71485 -4.19532,-1.31641 -6.1836,-1.81641 -1.98828,-0.56641 -3.62109,-1.21094 -4.90234,-1.92187 -1.21094,-0.71094 -1.81641,-1.70704 -1.81641,-2.98438 0,-1.14062 0.53125,-2.02734 1.60156,-2.66797 1.13282,-0.64062 2.73829,-0.96094 4.80079,-0.96094 2.26953,0 4.37109,0.42969 6.28515,1.28125 0.99219,0.42579 1.92969,0.98438 2.81641,1.67188 1.49219,1.16797 3.67969,1.32422 5.01953,-0.0195 l 3.94141,-3.94531 c 1.13281,-1.13282 1.27343,-2.94922 0.14843,-4.08594 -1.92968,-1.95703 -4.19922,-3.49219 -6.8125,-4.61328 -3.40625,-1.49219 -7.24609,-2.23828 -11.51172,-2.23828 -4.26562,0 -7.57031,0.67187 -10.55078,2.02343 -2.98828,1.35157 -5.30468,3.23829 -6.9375,5.65625 -1.55859,2.41797 -2.34375,5.26563 -2.34375,8.53516 0,3.27344 0.60547,5.69141 1.8125,7.68359 1.27735,1.92188 2.91407,3.44922 4.91016,4.58594 1.98828,1.07031 4.04297,1.96094 6.18359,2.66797 2.20313,0.64062 4.29297,1.24219 6.29297,1.81641 1.98828,0.49609 3.58594,1.13671 4.78906,1.91796 1.28125,0.78516 1.92579,1.88672 1.92579,3.3086 0,1.28125 -0.60547,2.24219 -1.8125,2.8789 -1.13672,0.64063 -2.84375,0.96094 -5.11329,0.96094 -2.84765,0 -5.44531,-0.5 -7.78906,-1.49609 -1.32031,-0.5586 -2.55078,-1.28125 -3.69531,-2.15625 -1.46484,-1.125 -3.58203,-1.21094 -4.88281,0.10547 l -3.85157,3.90625 c -1.16796,1.18359 -1.25,3.08593 -0.0195,4.21093 1.21875,1.11329 2.5586,2.11719 4.03125,3.00782 2.34375,1.35156 4.89844,2.41797 7.67578,3.19922 z m 0,0"
           fill-opacity="1"
           fill-rule="nonzero"
           id="path66" />
      </g>
    </g>
  </g>
</svg>
