<svg id="Ebene_1" data-name="Ebene 1" xmlns="http://www.w3.org/2000/svg" viewBox="0 0 200 96"><defs><style>.cls-1{fill:#009ee2;}.cls-2{fill:#fff;}.cls-3{fill:#fbbd00;}</style></defs><title>Zeichenfläche 2</title><rect class="cls-1" width="94.93" height="96"/><path class="cls-2" d="M68,49.82h4.18l-2-5.9h0ZM78,56H74.36l-1.22-3.58h-6L65.86,56H62.27L68.39,40H72ZM60.9,56H57.58V44.65h0L53.59,56H50.86L46.91,44.75h0V56H43.55V40h5L52.3,51h0L55.91,40h5ZM40.46,56H36.92V40h3.54Zm-6.63,0H30.29V49.1H23.77V56H20.23V40h3.54v6.17h6.52V40h3.54ZM89,48c0-5.57-4.71-10.56-12.23-14.14S58.92,28,47.47,28s-21.82,2.22-29.34,5.81S5.91,42.42,5.9,48s4.71,10.56,12.23,14.15S36,68,47.47,68s21.82-2.22,29.34-5.81S89,53.57,89,48"/><polygon class="cls-3" points="200 27.4 172.99 0 104.57 0 104.57 96 200 96 200 27.4"/><path class="cls-2" d="M120.58,41.09a1.07,1.07,0,0,0-.41-.89,5.07,5.07,0,0,0-1.43-.66,13.74,13.74,0,0,1-1.67-.66A3.16,3.16,0,0,1,115,36a2.55,2.55,0,0,1,.53-1.59A3.41,3.41,0,0,1,117,33.35a5.81,5.81,0,0,1,2.17-.38,5.08,5.08,0,0,1,2.1.42,3.33,3.33,0,0,1,1.45,1.19,3.1,3.1,0,0,1,.52,1.76h-2.62a1.31,1.31,0,0,0-.41-1,1.59,1.59,0,0,0-1.1-.37,1.79,1.79,0,0,0-1.11.31.91.91,0,0,0,0,1.54,5.66,5.66,0,0,0,1.58.7,9.67,9.67,0,0,1,1.85.78,3.11,3.11,0,0,1,1.76,2.8,2.65,2.65,0,0,1-1.08,2.24,4.8,4.8,0,0,1-3,.81,5.87,5.87,0,0,1-2.4-.47,3.61,3.61,0,0,1-1.61-1.3,3.37,3.37,0,0,1-.54-1.9h2.63a1.66,1.66,0,0,0,.45,1.29,2.14,2.14,0,0,0,1.47.41,1.69,1.69,0,0,0,1-.28A.92.92,0,0,0,120.58,41.09Z"/><path class="cls-2" d="M129.15,33.12l2.43,7.55L134,33.12h3.45V44h-2.63V41.44l.25-5.19L132.44,44h-1.73l-2.64-7.73.25,5.2V44H125.7V33.12Z"/><path class="cls-2" d="M146.56,41.95H143l-.63,2h-2.8l4-10.86H146L150,44H147.2Zm-3-2h2.34l-1.17-3.77Z"/><path class="cls-2" d="M156,40.14h-1.42V44h-2.62V33.12h4.28a4.79,4.79,0,0,1,3,.86,2.9,2.9,0,0,1,1.09,2.42,3.52,3.52,0,0,1-.46,1.88,3.27,3.27,0,0,1-1.44,1.21l2.27,4.38V44H157.9Zm-1.42-2h1.66a1.49,1.49,0,0,0,1.12-.39,1.51,1.51,0,0,0,.38-1.1,1.53,1.53,0,0,0-.38-1.1,1.48,1.48,0,0,0-1.12-.4h-1.66Z"/><path class="cls-2" d="M171.23,35.14H168V44h-2.62V35.14h-3.21v-2h9.1Z"/><path class="cls-2" d="M120.57,59.89a1.07,1.07,0,0,0-.41-.89,5.07,5.07,0,0,0-1.43-.66,13.74,13.74,0,0,1-1.67-.66,3.16,3.16,0,0,1-2.12-2.85,2.55,2.55,0,0,1,.53-1.59A3.41,3.41,0,0,1,117,52.15a5.81,5.81,0,0,1,2.17-.38,5.08,5.08,0,0,1,2.1.42,3.33,3.33,0,0,1,1.45,1.19,3.1,3.1,0,0,1,.52,1.76h-2.62a1.31,1.31,0,0,0-.41-1,1.59,1.59,0,0,0-1.1-.37,1.79,1.79,0,0,0-1.11.31.91.91,0,0,0,0,1.54,5.66,5.66,0,0,0,1.58.7,9.67,9.67,0,0,1,1.85.78,3.11,3.11,0,0,1,1.76,2.8,2.65,2.65,0,0,1-1.08,2.24,4.8,4.8,0,0,1-3,.81,5.87,5.87,0,0,1-2.4-.47,3.61,3.61,0,0,1-1.61-1.3,3.37,3.37,0,0,1-.54-1.9h2.63a1.66,1.66,0,0,0,.45,1.29,2.14,2.14,0,0,0,1.47.41,1.69,1.69,0,0,0,1-.28A.92.92,0,0,0,120.57,59.89Z"/><path class="cls-2" d="M131.87,60.75h-3.6l-.63,2h-2.8l4-10.86h2.47l4,10.86H132.5Zm-3-2h2.34L130.07,55Z"/><path class="cls-2" d="M144.1,58.45h-4.23v4.33h-2.62V51.92h7.28v2h-4.66v2.5h4.23Z"/><path class="cls-2" d="M153.51,58.17h-4.13v2.6h4.87v2h-7.5V51.92h7.51v2h-4.89v2.29h4.13Z"/><path class="cls-2" d="M165.16,53.94H161.9v8.84h-2.62V53.94h-3.21v-2h9.1Z"/><path class="cls-2" d="M171.5,56.63l2-4.71h2.83l-3.51,7v3.9h-2.66v-3.9l-3.5-7h2.82Z"/><path class="cls-2" d="M177.73,60.34a1.44,1.44,0,0,1,1,.35,1.23,1.23,0,0,1,0,1.81,1.44,1.44,0,0,1-1,.35,1.42,1.42,0,0,1-1-.36,1.23,1.23,0,0,1,0-1.8A1.42,1.42,0,0,1,177.73,60.34Z"/></svg>
