<!--
  SPDX-License-Identifier: MIT
  SPDX-FileCopyrightText: Pimjo LLC <https://lineicons.com/>
-->
<svg xmlns="http://www.w3.org/2000/svg" viewBox="0 0 24 24">
  <path
    fill="currentColor"
    d="M12.766 7.979a2.305 2.305 0 1 1 3.26 3.26a2.305 2.305 0 0 1-3.26-3.26m2.199 1.06a.805.805 0 1 0-1.139 1.14a.805.805 0 0 0 1.139-1.14"
  /><path
    fill="currentColor"
    d="M20.622 4.043a.75.75 0 0 0-.66-.66A12.66 12.66 0 0 0 9.55 7.015a12.7 12.7 0 0 0-1.735 2.159a6.73 6.73 0 0 0-4.505 1.972a6.8 6.8 0 0 0-1.226 1.676a.75.75 0 0 0 .812 1.08a6.14 6.14 0 0 1 3.552.35l3.302 3.3a6.14 6.14 0 0 1 .35 3.554a.75.75 0 0 0 1.079.813a6.8 6.8 0 0 0 1.677-1.227a6.73 6.73 0 0 0 1.972-4.503a12.7 12.7 0 0 0 2.161-1.737a12.66 12.66 0 0 0 3.633-10.409m-7.414 13.018a5.2 5.2 0 0 1-1.493 2.649a7.7 7.7 0 0 0-.318-1.999a12.6 12.6 0 0 0 1.81-.65m-6.916-4.456a7.7 7.7 0 0 0-2-.32l.079-.079a5.23 5.23 0 0 1 2.571-1.413q-.396.886-.65 1.812m4.319-4.53a11.15 11.15 0 0 1 8.573-3.254a11.15 11.15 0 0 1-3.255 8.57a11.13 11.13 0 0 1-5.26 2.96l-3.017-3.017a11.1 11.1 0 0 1 2.959-5.258"
  />
  <path
    fill="currentColor"
    d="m3.03 20.25l.75-.027za.75.75 0 0 0 .722.723l.028-.75l-.028.75h.032a7 7 0 0 0 .345.003c.222-.003.528-.013.857-.044c.326-.03.696-.083 1.04-.177c.32-.088.721-.24 1.013-.532a2.305 2.305 0 1 0-3.26-3.26c-.292.292-.443.693-.531 1.014a6 6 0 0 0-.178 1.04a11 11 0 0 0-.04 1.202zm1.81-2.226a.805.805 0 0 1 1.139 1.138a.4.4 0 0 1-.087.052a1.6 1.6 0 0 1-.265.095a5 5 0 0 1-.78.13q-.158.015-.306.023q.008-.148.023-.306c.026-.28.068-.555.13-.78q.046-.169.094-.265a.4.4 0 0 1 .052-.087"
  />
</svg>